<svg width="16" height="16" version="1.0" viewBox="0 0 1600 1600" xmlns="http://www.w3.org/2000/svg"><style>@media (prefers-color-scheme:dark){path{fill:#fff}}</style><path d="M859 928c0 25-19 38-58 38-43 0-64-13-64-38 0-118-42-214-127-288-75-63-148-94-219-94-105 0-170 38-196 115l-9.2 58v4.3c0 57 45 136 136 237 25 26 45 46 62 60 25 19 65 28 122 28 60 0 157-11 291-32 135 21 233 32 293 32 58 0 99-9.3 122-28 65-53 118-117 162-192 25-43 37-78 37-105 0-90-44-146-131-169-23-5.6-48-8.4-74-8.4-71 0-143 32-217 96-86 71-129 166-129 286m501-205c0 57-42 124-127 201l-60 47-23 13c-29 4.3-60 6.4-92 6.4-95 0-143-18-143-53 3-110 38-195 106-256 58-54 118-81 180-81 78 0 128 26 150 79l9.3 45m-219 542c0-37-113-55-339-55-61 0-116 2.1-164 6.3l-55 4.3c-83 9.9-125 24-125 43 0 21 21 32 62 32l279-21 277 21c43 0 64-9.9 64-30m129 51c-3 97-160 145-470 145-308 0-464-48-468-145-1.5-91-16-172-44-243-17-38-49-87-97-147-60-75-90-142-90-201 0-91 42-162 127-211 48-28 101-43 159-43 80 0 156 27 228 81 0-65 6.9-110 21-134 11-27 46-60 106-98v-49l-95-53v-77h85l28-79h78l30 79h83v77l-92 53v49c58 40 95 74 108 102l16 62c1.6 17 3.2 40 4.6 68 72-54 147-81 224-81 103 0 183 36 240 109 32 43 48 91 48 145 0 58-30 126-90 203l-53 68c-57 80-86 186-88 320m-1000-593c0-60 32-98 97-115 18-5.6 38-8.6 58-8.6 65 0 126 27 185 81 66 63 101 148 104 256 1.6 31-34 49-106 53h-35c-31 0-62-2.1-95-6.4-51-23-101-68-152-134-37-50-55-92-55-126"/></svg>
